<svg id="Artwork" xmlns="http://www.w3.org/2000/svg" viewBox="0 0 2508.97 623.62">
  <path fill="#ffffff" d="M869.78 175.32c-.8-2.4-2.41-4-5.22-4h-76.27c-2.81 0-4.41 1.61-5.22 4l-85.9 271.37c-1.21 3.61.8 5.62 4 5.62h61.43a5.66 5.66 0 0 0 5.62-4l10.44-35.73c.4-.8.8-1.61 2-1.61h91.52c1.21 0 1.61.81 2 1.61l10.44 35.73a5.66 5.66 0 0 0 5.62 4h61.41c3.22 0 5.22-2 4-5.62zm-13.44 184.26h-59.82c-1.2 0-2-.8-1.6-2.41L825 254c.23-.92.85-1.44 1.41-1.36.56-.08 1.18.44 1.4 1.36l30.11 103.16c.42 1.62-.38 2.42-1.58 2.42z"/>
  <rect fill="#ffffff" x="976.52" y="171.34" width="66.64" height="281" rx="4.82" ry="4.82"/>
  <rect fill="#ffffff" x="1072.28" y="171.34" width="66.64" height="281" rx="4.82" ry="4.82"/>
  <path fill="#ffffff" d="M1393.5 175.35c-.8-2.41-2.41-4-5.22-4H1312c-2.81 0-4.42 1.6-5.22 4l-85.91 271.37c-1.2 3.61.81 5.62 4 5.62h61.42a5.68 5.68 0 0 0 5.62-4l10.44-35.73c.4-.81.8-1.61 2-1.61h91.53c1.2 0 1.6.8 2 1.61l10.43 35.73a5.68 5.68 0 0 0 5.62 4h61.42c3.21 0 5.22-2 4-5.62zm-13.45 184.26h-59.81c-1.21 0-2-.8-1.61-2.41l30.11-103.2c.23-.91.84-1.43 1.41-1.35.56-.08 1.17.44 1.4 1.35l30.11 103.17c.4 1.64-.4 2.44-1.61 2.44zM2456.38 331.9c-32.51-10.44-65.83-8.43-65.83-24.09 0-9.23 10.84-14.45 25.29-14.45 16.86 0 26.9 7.23 26.9 17.26V313c0 1.61 2 2.41 4.81 2.41h52.59a4.64 4.64 0 0 0 4.82-4.82c0-40.94-35.73-69-89.92-69-52.59 0-88.32 25.69-88.32 67.84 0 32.11 22.08 46.56 44.56 55.8 33.32 14.85 70.65 10.83 70.65 26.89 0 8.43-9.63 14.05-24.48 14.05-17.26 0-29.71-7.62-29.71-17.66v-2.41c0-1.61-2-2.41-4.82-2.41h-54.19a4.64 4.64 0 0 0-4.82 4.82v4.41c0 36.94 36.13 62.63 93.94 62.63 54.19 0 91.12-22.48 91.12-65.43.03-32.93-22.88-48.59-52.59-58.22zM2253.47 331.9c-32.52-10.44-65.84-8.43-65.84-24.09 0-9.23 10.84-14.45 25.29-14.45 16.86 0 26.9 7.23 26.9 17.26V313c0 1.61 2 2.41 4.82 2.41h52.58a4.64 4.64 0 0 0 4.82-4.82c0-40.94-35.73-69-89.92-69-52.59 0-88.31 25.69-88.31 67.84 0 32.11 22.08 46.56 44.56 55.8 33.31 14.85 70.65 10.83 70.65 26.89 0 8.43-9.64 14.05-24.49 14.05-17.26 0-29.71-7.62-29.71-17.66v-2.41c0-1.61-2-2.41-4.81-2.41h-54.2a4.63 4.63 0 0 0-4.81 4.82v4.41c0 36.94 36.13 62.63 93.93 62.63 54.19 0 91.13-22.48 91.13-65.43 0-32.93-22.89-48.59-52.59-58.22zM2005.59 241.16c-44.15 0-77.47 24.89-91.12 63.83a125.09 125.09 0 0 0-6.42 43.76c0 17.66 2.8 32.91 8.43 46.56 14.85 37.34 49 60.22 97.14 60.22 32.52.4 62.22-10 81.49-31.31a4.18 4.18 0 0 0 0-6.43l-30.91-35.32c-2-2.41-4.82-2.41-6.82.4-8.43 9.63-21.68 16.46-38.14 16.46-20.47.4-33.72-7.63-39.74-18.87a49.37 49.37 0 0 1-4-11.64c-.41-1.21.8-2 2-2h122.44c2.81 0 4.82-1.6 5.22-4.82.4-10.84.4-21.67-1.21-31.71-7.63-51.39-44.57-89.13-98.36-89.13zm28.91 87.51h-57c-1.2 0-2-.8-1.6-2a43.56 43.56 0 0 1 2-8.43c4.42-12.45 13.25-19.67 27.7-19.67 14.86 0 25.29 7.22 28.91 20.47a42.83 42.83 0 0 1 1.6 7.63c.39 1.2-.41 2-1.61 2zM1795 298.58c27.65 0 30.51 25.29 30.91 26.49.8 3.21 2.81 4.42 5.62 4l55.8-8.43a4.9 4.9 0 0 0 4.41-5.22 63.78 63.78 0 0 0-3.61-15.66c-11.24-32.51-47-58.2-92.73-58.2-43.76 0-79.08 22.48-92.73 59.81-4.42 11.24-7.63 26.49-7.63 46.16 0 16.06 2 32.12 7.63 46.17 14 38.53 48.57 61.82 92.73 61.82 43 0 79.88-21.28 92.73-59.41a52.34 52.34 0 0 0 2.41-12.45 4.36 4.36 0 0 0-4-5.22l-56.2-8.83c-2.81-.4-4.81.81-5.62 4 0 .8-3.72 24.89-29.7 24.89-14 0-23.69-7.63-28.5-20.48-2.41-7.62-4-17.66-4-30.11 0-12.84 1.61-23.28 4.42-30.5 4.34-12.01 13.98-18.83 28.06-18.83zM1581.08 298.58c13.65 0 24.08 7.63 28.5 17.26a30.45 30.45 0 0 1 1.61 5.62c.4 1.2.4 2.41.8 3.61.8 3.21 2.81 4.42 5.62 4l55.8-8.43a4.9 4.9 0 0 0 4.41-5.22 63.78 63.78 0 0 0-3.61-15.66c-11.24-32.51-47-58.2-92.73-58.2-43.76 0-79.08 22.48-92.73 59.81-4.42 11.24-7.63 26.49-7.63 46.16 0 16.06 2 32.12 7.63 46.17 14 38.53 48.57 61.82 92.73 61.82 43 0 79.88-21.28 92.73-59.41a51.85 51.85 0 0 0 2.41-12.45 4.36 4.36 0 0 0-4-5.22l-56.2-8.83c-2.81-.4-4.81.81-5.62 4 0 .8 0 1.2-.4 1.6a5.11 5.11 0 0 1-.4 2.41c-4.41 13.65-15.25 20.88-28.9 20.88-14 0-23.69-7.63-28.5-20.48-2.41-7.62-4-17.66-4-30.11 0-12.84 1.61-23.28 4.42-30.5 4.37-12.01 13.98-18.83 28.06-18.83zM311.81 0C139.6 0 0 139.6 0 311.81s139.6 311.81 311.81 311.81S623.62 484 623.62 311.81 484 0 311.81 0zm-211 226.23a55 55 0 0 0 54.94-54.95h91.61a146.55 146.55 0 0 1-146.58 146.55zm275.48 232.13a146.51 146.51 0 0 1-129-76.89v70.87h-91.57V324.4a162 162 0 0 0 90-79.18 146.54 146.54 0 0 1 130.55-79.95 146.55 146.55 0 1 1 0 293.1z"/>
  <circle fill="#ffffff" cx="376.29" cy="311.81" r="54.95" transform="rotate(-37.98 376.32 311.829)"/>
</svg>